<svg width="20" height="20" viewBox="0 0 20 20" fill="none" xmlns="http://www.w3.org/2000/svg">
<path d="M6.38867 5.13965V6.11182H4.93042C4.12505 6.11182 3.47217 6.7647 3.47217 7.57007V16.3196C3.47217 17.125 4.12505 17.7778 4.93042 17.7778H11.7356C12.541 17.7778 13.1938 17.125 13.1938 16.3196V14.8613H14.166V16.3196C14.166 17.6619 13.0779 18.75 11.7356 18.75H4.93042C3.58814 18.75 2.5 17.6619 2.5 16.3196V7.57007C2.5 6.22779 3.58814 5.13965 4.93042 5.13965H6.38867ZM14.166 2.22315H8.81909C8.01372 2.22315 7.36084 2.87603 7.36084 3.6814V12.4309C7.36084 13.2363 8.01372 13.8892 8.81909 13.8892H15.6243C16.4296 13.8892 17.0825 13.2363 17.0825 12.4309V5.13965H14.6521C14.3836 5.13965 14.166 4.92203 14.166 4.65357V2.22315ZM18.0547 4.68077V12.4309C18.0547 13.7732 16.9666 14.8613 15.6243 14.8613H8.81909C7.47681 14.8613 6.38867 13.7732 6.38867 12.4309V3.6814C6.38867 2.33912 7.47681 1.25098 8.81909 1.25098H14.6249C14.754 1.2428 14.8883 1.28582 14.9958 1.39335L17.9123 4.30986C18.0198 4.41739 18.0629 4.55172 18.0547 4.68077ZM15.1382 4.16749H16.3951L15.1382 2.91058V4.16749ZM9.79126 10.9727C9.5228 10.9727 9.30518 10.755 9.30518 10.4866C9.30518 10.2181 9.5228 10.0005 9.79126 10.0005H11.7356C12.0041 10.0005 12.2217 10.2181 12.2217 10.4866C12.2217 10.755 12.0041 10.9727 11.7356 10.9727H9.79126ZM9.79126 9.02833C9.5228 9.02833 9.30518 8.8107 9.30518 8.54224C9.30518 8.27379 9.5228 8.05616 9.79126 8.05616H14.6521C14.9206 8.05616 15.1382 8.27379 15.1382 8.54224C15.1382 8.8107 14.9206 9.02833 14.6521 9.02833H9.79126ZM9.79126 7.08399C9.5228 7.08399 9.30518 6.86636 9.30518 6.59791C9.30518 6.32945 9.5228 6.11182 9.79126 6.11182H14.6521C14.9206 6.11182 15.1382 6.32945 15.1382 6.59791C15.1382 6.86636 14.9206 7.08399 14.6521 7.08399H9.79126Z" fill="#A3A3A3"/>
</svg>
