<svg width="20" height="20" viewBox="0 0 20 20" fill="none" xmlns="http://www.w3.org/2000/svg">
<path d="M9.16669 3.33335H3.33335C2.89133 3.33335 2.4674 3.50895 2.15484 3.82151C1.84228 4.13407 1.66669 4.55799 1.66669 5.00002V16.6667C1.66669 17.1087 1.84228 17.5326 2.15484 17.8452C2.4674 18.1578 2.89133 18.3333 3.33335 18.3333H15C15.442 18.3333 15.866 18.1578 16.1785 17.8452C16.4911 17.5326 16.6667 17.1087 16.6667 16.6667V10.8334" stroke="#5A7FFF" stroke-linecap="round" stroke-linejoin="round"/>
<path d="M15.4167 2.08333C15.7482 1.75181 16.1978 1.56556 16.6667 1.56556C17.1355 1.56556 17.5852 1.75181 17.9167 2.08333C18.2482 2.41485 18.4345 2.86449 18.4345 3.33333C18.4345 3.80217 18.2482 4.25181 17.9167 4.58333L10 12.5L6.66669 13.3333L7.50002 9.99999L15.4167 2.08333Z" stroke="#5A7FFF" stroke-linecap="round" stroke-linejoin="round"/>
</svg>
